<?xml version="1.0" encoding="UTF-8" standalone="no"?>
<!DOCTYPE svg PUBLIC "-//W3C//DTD SVG 1.1//EN"
 "http://www.w3.org/Graphics/SVG/1.1/DTD/svg11.dtd">
<!-- Generated by graphviz version 2.47.0 (20210316.0004)
 -->
<!-- Title: dependencies Pages: 1 -->
<svg width="638pt" height="284pt"
 viewBox="0.00 0.00 638.00 284.00" xmlns="http://www.w3.org/2000/svg" xmlns:xlink="http://www.w3.org/1999/xlink">
<g id="graph0" class="graph" transform="scale(1 1) rotate(0) translate(4 280)">
<title>dependencies</title>
<polygon fill="white" stroke="transparent" points="-4,4 -4,-280 634,-280 634,4 -4,4"/>
<text text-anchor="start" x="294.01" y="-42.4" font-family="sans-serif" font-weight="bold" font-size="14.00">Legend</text>
<polygon fill="#ffffb3" stroke="transparent" points="81,-10 81,-30 101,-30 101,-10 81,-10"/>
<text text-anchor="start" x="104.63" y="-15.4" font-family="sans-serif" font-size="14.00"> &#160;Declarations</text>
<polygon fill="#8dd3c7" stroke="transparent" points="194,-10 194,-30 214,-30 214,-10 194,-10"/>
<text text-anchor="start" x="217.73" y="-15.4" font-family="sans-serif" font-size="14.00"> &#160;Module</text>
<polygon fill="#80b1d3" stroke="transparent" points="280,-10 280,-30 300,-30 300,-10 280,-10"/>
<text text-anchor="start" x="303.78" y="-15.4" font-family="sans-serif" font-size="14.00"> &#160;Bootstrap</text>
<polygon fill="#fdb462" stroke="transparent" points="377,-10 377,-30 397,-30 397,-10 377,-10"/>
<text text-anchor="start" x="400.67" y="-15.4" font-family="sans-serif" font-size="14.00"> &#160;Providers</text>
<polygon fill="#fb8072" stroke="transparent" points="473,-10 473,-30 493,-30 493,-10 473,-10"/>
<text text-anchor="start" x="496.73" y="-15.4" font-family="sans-serif" font-size="14.00"> &#160;Exports</text>
<g id="clust1" class="cluster">
<title>cluster_AppModule</title>
<polygon fill="none" stroke="black" stroke-dasharray="1,5" points="8,-70 8,-268 622,-268 622,-70 8,-70"/>
</g>
<g id="clust5" class="cluster">
<title>cluster_AppModule_imports</title>
<polygon fill="none" stroke="black" points="470,-78 470,-130 614,-130 614,-78 470,-78"/>
</g>
<g id="clust7" class="cluster">
<title>cluster_AppModule_bootstrap</title>
<polygon fill="none" stroke="black" points="233,-208 233,-260 357,-260 357,-208 233,-208"/>
</g>
<g id="clust8" class="cluster">
<title>cluster_AppModule_providers</title>
<polygon fill="none" stroke="black" points="286,-78 286,-130 462,-130 462,-78 286,-78"/>
</g>
<g id="clust2" class="cluster">
<title>cluster_AppModule_declarations</title>
<polygon fill="none" stroke="black" points="16,-78 16,-130 278,-130 278,-78 16,-78"/>
</g>
<!-- AppComponent -->
<g id="node1" class="node">
<title>AppComponent</title>
<polygon fill="#ffffb3" stroke="black" points="269.94,-122 164.06,-122 164.06,-86 269.94,-86 269.94,-122"/>
<text text-anchor="middle" x="217" y="-99.8" font-family="Times,serif" font-size="14.00">AppComponent</text>
</g>
<!-- AppModule -->
<g id="node3" class="node">
<title>AppModule</title>
<polygon fill="#8dd3c7" stroke="black" points="336.66,-187 333.66,-191 312.66,-191 309.66,-187 253.34,-187 253.34,-151 336.66,-151 336.66,-187"/>
<text text-anchor="middle" x="295" y="-164.8" font-family="Times,serif" font-size="14.00">AppModule</text>
</g>
<!-- AppComponent&#45;&gt;AppModule -->
<g id="edge1" class="edge">
<title>AppComponent&#45;&gt;AppModule</title>
<path fill="none" stroke="black" d="M261.45,-122.11C261.45,-122.11 261.45,-140.99 261.45,-140.99"/>
<polygon fill="black" stroke="black" points="257.95,-140.99 261.45,-150.99 264.95,-140.99 257.95,-140.99"/>
</g>
<!-- CanvasComponent -->
<g id="node2" class="node">
<title>CanvasComponent</title>
<polygon fill="#ffffb3" stroke="black" points="146.04,-122 23.96,-122 23.96,-86 146.04,-86 146.04,-122"/>
<text text-anchor="middle" x="85" y="-99.8" font-family="Times,serif" font-size="14.00">CanvasComponent</text>
</g>
<!-- CanvasComponent&#45;&gt;AppModule -->
<g id="edge2" class="edge">
<title>CanvasComponent&#45;&gt;AppModule</title>
<path fill="none" stroke="black" d="M85,-122.11C85,-141.34 85,-169 85,-169 85,-169 243.26,-169 243.26,-169"/>
<polygon fill="black" stroke="black" points="243.26,-172.5 253.26,-169 243.26,-165.5 243.26,-172.5"/>
</g>
<!-- AppComponent  -->
<g id="node5" class="node">
<title>AppComponent </title>
<polygon fill="#80b1d3" stroke="black" points="349.44,-252 240.56,-252 240.56,-216 349.44,-216 349.44,-252"/>
<text text-anchor="middle" x="295" y="-229.8" font-family="Times,serif" font-size="14.00">AppComponent </text>
</g>
<!-- AppModule&#45;&gt;AppComponent  -->
<g id="edge4" class="edge">
<title>AppModule&#45;&gt;AppComponent </title>
<path fill="none" stroke="black" stroke-dasharray="1,5" d="M295,-187.11C295,-187.11 295,-205.99 295,-205.99"/>
<polygon fill="black" stroke="black" points="291.5,-205.99 295,-215.99 298.5,-205.99 291.5,-205.99"/>
</g>
<!-- AppRoutingModule -->
<g id="node4" class="node">
<title>AppRoutingModule</title>
<polygon fill="#8dd3c7" stroke="black" points="606.27,-122 603.27,-126 582.27,-126 579.27,-122 477.73,-122 477.73,-86 606.27,-86 606.27,-122"/>
<text text-anchor="middle" x="542" y="-99.8" font-family="Times,serif" font-size="14.00">AppRoutingModule</text>
</g>
<!-- AppRoutingModule&#45;&gt;AppModule -->
<g id="edge3" class="edge">
<title>AppRoutingModule&#45;&gt;AppModule</title>
<path fill="none" stroke="black" d="M542,-122.11C542,-141.34 542,-169 542,-169 542,-169 346.9,-169 346.9,-169"/>
<polygon fill="black" stroke="black" points="346.9,-165.5 336.9,-169 346.9,-172.5 346.9,-165.5"/>
</g>
<!-- ResourcesService -->
<g id="node6" class="node">
<title>ResourcesService</title>
<ellipse fill="#fdb462" stroke="black" cx="374" cy="-104" rx="79.85" ry="18"/>
<text text-anchor="middle" x="374" y="-99.8" font-family="Times,serif" font-size="14.00">ResourcesService</text>
</g>
<!-- ResourcesService&#45;&gt;AppModule -->
<g id="edge5" class="edge">
<title>ResourcesService&#45;&gt;AppModule</title>
<path fill="none" stroke="black" d="M315.58,-116.53C315.58,-116.53 315.58,-140.85 315.58,-140.85"/>
<polygon fill="black" stroke="black" points="312.08,-140.85 315.58,-150.85 319.08,-140.85 312.08,-140.85"/>
</g>
</g>
</svg>
